<svg xmlns="http://www.w3.org/2000/svg" width="48" height="48" viewBox="0 0 256 256" fill="none"><svg xmlns="http://www.w3.org/2000/svg" width="256" height="256" viewBox="0 0 256 256"><rect width="256" height="256" rx="60" fill="#242938"/><g transform="translate(35, 15) scale(.55)"><path style="opacity:1" fill="#090909" d="M162.5-.5h4l2 3q-.11 2.29 2 3 26.256 40.485 46.5 85A1235 1235 0 0 1 259.5 194a260 260 0 0 1 15 11.5q-.11 2.29 2 3-.11 2.29 2 3a1345 1345 0 0 1 35 28.5q9.404 8.644 17 18.5v6a511 511 0 0 1-18.5 22 81 81 0 0 1-2.5 18.5q8.09 9.132 7 21.5 7.763-.312 14 4v6a199.5 199.5 0 0 1-26 20.5q-3 1-6 0a61 61 0 0 0-10-3.5q-.7 21.816-12.5 40a126 126 0 0 1-7.5 6h-21q-14.25-8.235-26-20-.71-2.11-3-2-25.633-13.292-54.5-16a138 138 0 0 0-39.5 6.5 762 762 0 0 1-46 25Q47.528 407.025 36 375.5a159.4 159.4 0 0 1-1.5-27q-19.023 2.647-32.5-11-1.236-5.073.5-10 8.127-3.57 17-3a51.6 51.6 0 0 1 2-15q.936-.626 1-2-.37-1.82-2-2-3.291-2.582-3.5-7-1.066-3.598.5-7a170.5 170.5 0 0 1-15.5-26q-2.107-5.358-1-11A313 313 0 0 1 24.5 236l30-17L69 206.5a1528 1528 0 0 1 91.5-203q2.11-.71 2-3zm153 264a25.7 25.7 0 0 0-6 6q-1.352 1.185-2 3-2.11.71-2 3a174 174 0 0 0-3 4 80.5 80.5 0 0 0-12 3.5q-1.984 1.224-2 3.5-1.356 1.063-1 3h-4a665 665 0 0 0-10-46.5 480 480 0 0 1 7.5-19.5q21.14 14.138 34 36a8.4 8.4 0 0 1 .5 4m-281 19q-2.442-2.029-4 1-1.494-.129-2.5 1a29 29 0 0 0-3.5-5q.11-2.29-2-3a96.2 96.2 0 0 0-11-17.5A185.6 185.6 0 0 1 52 229.5a182 182 0 0 1 5.5 11.5A799 799 0 0 0 45 289.5q-3.989-5.604-10.5-7"/><path style="opacity:1" fill="gray" d="M162.5.5q.11 2.29-2 3-.11-2.29 2-3"/><path style="opacity:1" fill="#7f7f7f" d="M168.5 2.5q2.11.71 2 3-2.11-.71-2-3"/><path style="opacity:1" fill="#b00a31" d="M158.5 135.5q31.954-3.434 54.5 19 23.774 34.434-7.5 62.5-35.667 24.44-72 1-31.618-27.333-9.5-62.5 14.313-15.275 34.5-20"/><path style="opacity:1" fill="#fdfafb" d="M140.5 148.5q7.692-.582 15 1.5 8.058 8.717-1 17-8.922 6.73-20 5-11.51-8.657-1-19a786 786 0 0 0 7-4.5"/><path style="opacity:1" fill="#fdfdfd" d="M236.5 179.5q3.399-.538 5.5 2a647 647 0 0 1 26 90q11.036 43.854 8 89a94 94 0 0 1-8 23q-9.001 8.782-20.5 2.5-26.365-27.188-64-34-31.512-5.936-62 4a422 422 0 0 0-34 19 103.2 103.2 0 0 1-21 9 30.5 30.5 0 0 1-11 0q-7.614-6.477-8.5-16.5 6.065-94.509 43.5-181.5a47 47 0 0 1 11-1.5q7.209 46.962 54 56.5 42.775 5.918 70.5-26.5 10.132-16.032 10.5-35"/><path style="opacity:1" fill="#797979" d="M274.5 205.5q2.11.71 2 3-2.11-.71-2-3"/><path style="opacity:1" fill="#7f7f7f" d="M276.5 208.5q2.11.71 2 3-2.11-.71-2-3"/><path style="opacity:1" fill="#6d6d6d" d="M315.5 263.5c-1 3-3 5-6 6a25.7 25.7 0 0 1 6-6"/><path style="opacity:1" fill="#7f7f7f" d="M307.5 272.5q.11 2.29-2 3-.11-2.29 2-3m-285 4q2.11.71 2 3-2.11-.71-2-3"/><path style="opacity:1" fill="#7b7b7b" d="m34.5 282.5-4 1q1.558-3.029 4-1"/><path style="opacity:1" fill="#5d5d5d" d="M288.5 286.5v4q-2.872.426-5-1h4q-.356-1.937 1-3"/><path style="opacity:1" fill="#c6c6c6" d="M20.5 305.5q1.63.18 2 2-.064 1.374-1 2 .1-2.188-1-4"/><path style="opacity:1" fill="#858585" d="M218.5 377.5q2.29-.11 3 2-2.29.11-3-2"/></g></svg></svg>