<svg xmlns="http://www.w3.org/2000/svg" width="48" height="48" viewBox="0 0 256 256" fill="none"><svg xmlns="http://www.w3.org/2000/svg" width="256" height="256" viewBox="0 0 256 256"><rect width="256" height="256" rx="60" fill="#242938"/><path d="M93.689 144.011c-8.376 2.377-13.871 6.545-17.491 10.71 3.467-3.034 8.111-5.819 14.376-7.595 6.408-1.816 11.874-1.803 16.39-.931v-3.532c-3.852-.353-8.27-.072-13.275 1.348M75.815 114.32l-31.106 8.196s.566.8 1.616 1.869l26.374-6.95s-.373 4.816-3.619 9.124c6.14-4.645 6.735-12.239 6.735-12.239m26.038 73.107c-43.775 11.79-66.935-38.941-73.947-65.273-3.24-12.154-4.654-21.36-5.031-27.3a10 10 0 0 1 .022-1.613c-2.271.137-3.358 1.317-3.137 4.729.377 5.937 1.791 15.141 5.031 27.3 7.009 26.327 30.172 77.058 73.947 65.268 9.529-2.567 16.687-7.242 22.06-13.21-4.952 4.473-11.151 7.996-18.945 10.099m8.227-104.154v3.115h17.17c-.352-1.103-.707-2.097-1.06-3.115z" fill="#2D4552"/><path d="M131.088 108.93c7.722 2.193 11.806 7.607 13.964 12.398l8.61 2.445s-1.174-16.768-16.342-21.076c-14.188-4.032-22.92 7.884-23.982 9.425 4.128-2.94 10.155-5.348 17.75-3.192m68.536 12.475c-14.202-4.05-22.93 7.89-23.976 9.41 4.13-2.937 10.155-5.345 17.746-3.18 7.71 2.197 11.79 7.604 13.956 12.398l8.622 2.455s-1.194-16.771-16.348-21.083m-8.554 44.212-71.623-20.023s.775 3.93 3.75 9.02l60.304 16.86c4.965-2.873 7.57-5.857 7.57-5.857m-49.657 43.1c-56.712-15.205-49.856-87.464-40.68-121.705 3.78-14.11 7.663-24.599 10.885-31.63-1.922-.395-3.514.617-5.087 3.816-3.42 6.938-7.794 18.233-12.027 34.045-9.174 34.24-16.03 106.496 40.679 121.7 26.73 7.161 47.553-3.722 63.076-20.815-14.734 13.346-33.546 20.828-56.846 14.588" fill="#2D4552"/><path d="M110.08 170.492v-14.581l-40.514 11.488s2.994-17.394 24.123-23.388c6.407-1.816 11.874-1.803 16.39-.931V83.272h20.286c-2.209-6.825-4.345-12.08-6.14-15.731-2.969-6.043-6.012-2.037-12.92 3.741-4.867 4.065-17.165 12.738-35.67 17.724-18.507 4.99-33.469 3.667-39.711 2.586-8.85-1.527-13.479-3.47-13.046 3.261.377 5.937 1.792 15.143 5.031 27.3 7.009 26.328 30.172 77.06 73.947 65.27 11.435-3.082 19.506-9.172 25.1-16.934H110.08zm-65.375-47.977 31.11-8.196s-.907 11.968-12.57 15.043c-11.665 3.071-18.54-6.847-18.54-6.847" fill="#E2574C"/><path d="M227.16 83.963c-8.086 1.418-27.486 3.184-51.462-3.243-23.983-6.422-39.895-17.656-46.199-22.936-8.937-7.485-12.868-12.687-16.737-4.818-3.42 6.94-7.794 18.235-12.027 34.047-9.174 34.24-16.03 106.496 40.679 121.7 56.696 15.193 86.88-50.815 96.055-85.058 4.233-15.809 6.09-27.78 6.6-35.499.583-8.744-5.423-6.205-16.908-4.193m-113.938 28.328s8.937-13.9 24.094-9.591c15.167 4.308 16.342 21.076 16.342 21.076zm37 62.372c-26.661-7.81-30.773-29.07-30.773-29.07l71.62 20.024c0-.003-14.456 16.759-40.847 9.046m25.322-43.691s8.925-13.89 24.08-9.57c15.153 4.315 16.347 21.083 16.347 21.083z" fill="#2EAD33"/><path d="m95.922 159.926-26.356 7.47s2.863-16.31 22.279-22.774L76.92 88.614l-1.29.392c-18.506 4.991-33.468 3.667-39.71 2.586-8.85-1.526-13.479-3.47-13.046 3.262.377 5.937 1.791 15.142 5.031 27.3 7.008 26.327 30.172 77.059 73.947 65.268l1.29-.405zm-51.217-37.41 31.11-8.197s-.907 11.968-12.57 15.043c-11.665 3.07-18.54-6.847-18.54-6.847" fill="#D65348"/><path d="m151.426 174.956-1.206-.293c-26.661-7.81-30.773-29.07-30.773-29.07l36.931 10.324 19.553-75.134-.236-.063c-23.983-6.422-39.894-17.656-46.2-22.936-8.936-7.485-12.867-12.687-16.736-4.818-3.417 6.94-7.791 18.235-12.024 34.047-9.174 34.24-16.03 106.496 40.679 121.7l1.162.262zm-38.203-62.665s8.937-13.9 24.094-9.591c15.167 4.308 16.342 21.076 16.342 21.076z" fill="#1D8D22"/><path d="m97.265 159.543-7.068 2.006c1.67 9.413 4.613 18.447 9.232 26.428.804-.178 1.602-.33 2.421-.555 2.146-.579 4.137-1.296 6.053-2.078-5.162-7.66-8.576-16.481-10.638-25.8m-2.76-66.3c-3.632 13.556-6.882 33.068-5.987 52.64 1.6-.695 3.292-1.343 5.17-1.876l1.309-.292c-1.595-20.906 1.853-42.209 5.738-56.703a283 283 0 0 1 2.956-10.258 92 92 0 0 1-5.237 3.109 269 269 0 0 0-3.949 13.38" fill="#C04B41"/></svg></svg>
