<svg xmlns="http://www.w3.org/2000/svg" width="48" height="48" viewBox="0 0 256 256" fill="none"><svg xmlns="http://www.w3.org/2000/svg" width="256" height="256" viewBox="0 0 256 256"><rect width="256" height="256" rx="60" fill="#242938"/><path d="M106 212H46.044V48c25.643 0 51.33 0 77.323.308-13.01 7.898-26.325 15.487-40.193 23.392 10.024 5.69 18.923 10.705 27.786 15.783 15.44 8.846 30.852 17.739 46.289 26.59 2.807 1.61 3.865 3.756 3.843 7.167-.168 25.98-.098 51.96-.08 77.94.002 1.88.18 3.76.268 5.497 1.016.105 1.426.285 1.66.152 13.467-7.639 26.945-15.259 40.32-23.06.973-.567 1.657-2.459 1.661-3.738.093-28.311.108-56.623-.033-84.934-.008-1.44-1.191-3.472-2.432-4.21-11.042-6.573-22.233-12.895-33.356-19.332C156.72 62.392 144.366 55.187 132 48h77.95v164c-33.304 0-66.658 0-100.318-.308 9.717-6.016 19.58-12.035 29.833-17.294 4.688-2.405 6.557-5.556 6.547-10.473-.035-18.316-.073-36.632.047-54.948.019-2.879-.985-4.416-3.463-5.828-15.86-9.04-31.643-18.219-47.4-27.441-3.988-2.335-7.61-2.268-11.594.14-6.604 3.99-13.458 7.565-20.115 11.47-4.323 2.537-8.485 5.347-13.175 8.324 1.604 1.513 2.41 2.617 3.492 3.241 16.128 9.294 32.22 18.655 48.514 27.65 3.016 1.664 3.756 3.406 3.739 6.523-.113 19.647-.057 39.296-.057 58.944m-44.512-25.008 28.024 16.299v-46.62c-4.304 2.555-7.946 4.745-11.615 6.888a5247 5247 0 0 1-24.729 14.376c-3.161 1.823-2.65 3.35.241 4.805 2.504 1.261 5.015 2.509 8.08 4.252"/><path fill="#5CE500" d="M131.556 48c12.81 7.187 25.165 14.392 37.544 21.555 11.123 6.437 22.314 12.759 33.356 19.331 1.241.739 2.424 2.772 2.432 4.21.141 28.312.126 56.624.033 84.935-.004 1.28-.688 3.171-1.662 3.739-13.374 7.8-26.852 15.42-40.32 23.06-.233.132-.643-.048-1.659-.153-.088-1.737-.266-3.617-.267-5.496-.019-25.98-.09-51.961.079-77.94.022-3.412-1.036-5.558-3.843-7.168-15.437-8.851-30.85-17.744-46.289-26.59-8.863-5.078-17.762-10.093-27.786-15.783 13.868-7.905 27.183-15.494 40.662-23.39 2.534-.31 4.904-.31 7.72-.31"/><path fill="#5CE500" d="M106.375 212c-.375-19.648-.431-39.297-.318-58.944.017-3.117-.723-4.86-3.739-6.524-16.294-8.994-32.386-18.355-48.514-27.649-1.082-.624-1.888-1.728-3.492-3.24 4.69-2.978 8.852-5.788 13.175-8.324 6.657-3.906 13.51-7.481 20.115-11.472 3.984-2.407 7.606-2.474 11.595-.14 15.756 9.223 31.538 18.402 47.399 27.443 2.478 1.412 3.482 2.95 3.463 5.828-.12 18.316-.082 36.632-.047 54.948.01 4.917-1.86 8.068-6.547 10.473-10.253 5.259-20.116 11.278-30.301 17.294-.914.308-1.664.308-2.789.308"/><path fill="#5CE500" d="M61.21 186.747c-2.786-1.498-5.297-2.746-7.8-4.007-2.892-1.455-3.403-2.982-.242-4.805 8.26-4.763 16.496-9.568 24.73-14.376 3.668-2.143 7.31-4.333 11.614-6.887v46.619c-9.662-5.62-18.843-10.96-28.302-16.544"/></svg></svg>